<svg width="443" height="301" viewBox="0 0 443 301" fill="none" xmlns="http://www.w3.org/2000/svg">
<path d="M204.356 151.21C208.895 146.656 218.045 138.914 218.332 144.379C218.69 151.21 209.731 168.827 218.332 160.917C226.932 153.008 237.324 138.987 238.041 144.379C238.757 149.772 239.833 151.21 249.866 141.503" stroke="black" stroke-width="2" stroke-linecap="round"/>
<path d="M30.2222 229.092C31.8961 231.369 37.2527 235.801 45.2876 235.319" stroke="black" stroke-width="2" stroke-linecap="round"/>
<path d="M131.06 239.136C123.16 243.451 100.122 247.542 70.7556 229.758C70.3245 229.497 69.7599 229.587 69.4333 229.971C63.6649 236.752 47.5754 250.484 26.6062 252.192C20.3791 252.7 15.96 249.581 23.1913 246.97C27.2089 245.519 30.222 244.559 31.6279 243.153" stroke="black" stroke-width="2" stroke-linecap="round"/>
<path d="M19.9777 248.777C15.9602 250.652 10.7376 251.911 9.93407 248.376C8.9297 243.956 16.1611 244.76 18.9733 242.55" stroke="black" stroke-width="2" stroke-linecap="round"/>
<path d="M9.33204 248.577C2.50244 250.585 -0.667117 244.537 5.31465 241.546C10.9391 238.734 15.76 239.738 19.3757 235.52" stroke="black" stroke-width="2" stroke-linecap="round"/>
<path d="M3.30547 242.952C1.76545 241.612 -0.0691857 238.171 4.91245 235.117C11.1395 231.301 40.266 218.445 36.6503 208.201C35.5869 205.188 29.8206 205.389 24.9997 199.162C21.4189 194.536 24.9997 189.118 29.4189 192.131C30.5572 193.002 37.5743 197.555 41.2703 195.948C45.8619 193.951 60.9689 192.154 71.8027 205.737C71.9325 205.9 72.1041 206.021 72.304 206.079C81.2868 208.689 100.911 212.44 109.969 207.197" stroke="black" stroke-width="2" stroke-linecap="round"/>
<path d="M41.6721 214.629C44.1495 216.973 51.1131 217.843 55.5323 213.625" stroke="black" stroke-width="2" stroke-linecap="round"/>
<path d="M413.252 226.703C411.579 228.98 406.222 233.412 398.187 232.93" stroke="black" stroke-width="2" stroke-linecap="round"/>
<path d="M312.414 236.747C320.314 241.062 343.352 245.153 372.718 227.369C373.149 227.108 373.714 227.198 374.041 227.581C379.809 234.363 395.898 248.095 416.868 249.803C423.095 250.311 427.514 247.192 420.283 244.581C416.265 243.13 413.252 242.17 411.846 240.764" stroke="black" stroke-width="2" stroke-linecap="round"/>
<path d="M423.497 246.389C427.514 248.263 432.737 249.522 433.541 245.987C434.545 241.568 427.314 242.371 424.501 240.162" stroke="black" stroke-width="2" stroke-linecap="round"/>
<path d="M434.143 246.188C440.972 248.197 444.142 242.148 438.16 239.158C432.536 236.345 427.715 237.35 424.099 233.131" stroke="black" stroke-width="2" stroke-linecap="round"/>
<path d="M440.169 240.563C441.709 239.224 443.544 235.782 438.562 232.729C432.335 228.912 403.209 216.056 406.824 205.812C407.888 202.799 413.654 203 418.475 196.773C422.056 192.148 418.475 186.729 414.056 189.742C412.917 190.613 405.9 195.166 402.204 193.559C397.613 191.563 382.506 189.765 371.672 203.348C371.542 203.511 371.37 203.633 371.171 203.691C362.188 206.3 342.563 210.052 333.506 204.808" stroke="black" stroke-width="2" stroke-linecap="round"/>
<path d="M401.802 212.24C399.325 214.584 392.361 215.454 387.942 211.236" stroke="black" stroke-width="2" stroke-linecap="round"/>
<path d="M200.245 68.7119C201.762 86.004 209.522 116.501 228.367 117.683C248.218 118.928 256.489 78.6722 256.489 68.2969" stroke="black" stroke-width="2" stroke-linecap="round"/>
<path d="M203.861 67.8948L198.236 67.0913" stroke="black" stroke-width="2" stroke-linecap="round"/>
<path d="M258.621 67.0913C264.714 68.6233 269.504 75.2805 254.883 87.982" stroke="black" stroke-width="2" stroke-linecap="round"/>
<path d="M197.608 67.0913C192.298 67.7877 186.708 75.8654 203.057 87.982" stroke="black" stroke-width="2" stroke-linecap="round"/>
<ellipse cx="214.307" cy="70.5061" rx="3.6157" ry="3.41483" fill="black"/>
<circle cx="241.826" cy="70.5061" r="3.41483" fill="black"/>
<circle cx="214.708" cy="70.3052" r="11.4541" stroke="black" stroke-width="2"/>
<path d="M252.677 70.3052C252.677 76.6465 247.624 81.7592 241.424 81.7592C235.224 81.7592 230.171 76.6465 230.171 70.3052C230.171 63.9639 235.224 58.8511 241.424 58.8511C247.624 58.8511 252.677 63.9639 252.677 70.3052Z" stroke="black" stroke-width="2"/>
<path d="M225.555 69.1001H230.376" stroke="black" stroke-width="2" stroke-linecap="round"/>
<path d="M223.605 76.7329C222.561 82.5246 222.444 92.1407 232.787 86.8454" stroke="black" stroke-width="2" stroke-linecap="round"/>
<path d="M221.136 99.231C223.346 98.0183 229.091 96.3206 234.394 99.231" stroke="black" stroke-width="2" stroke-linecap="round"/>
<path d="M251.669 67.0913H258.499" stroke="black" stroke-width="2" stroke-linecap="round"/>
<path d="M196.882 33.5559C175.803 43.4818 185.629 60.8522 193.177 68.2966C194.494 67.304 198.666 67.0559 200.587 67.0559C196.964 40.5868 210.606 33.5557 216.644 31.9014C233.524 29.0063 252.875 33.5559 256.168 46.7905C260.103 62.6004 260.227 67.883 263.285 68.2966C274.907 59.0324 273.194 41.2761 270.884 33.5559C273.897 24.9325 267.167 17.1506 263.285 12.4634C259.403 7.77612 248.758 -0.771423 229.819 0.0559613C192.353 3.77818 194.824 26.9386 196.882 33.5559Z" fill="black"/>
<path d="M207.477 53.8339C209.184 53.5307 214.306 53.1063 221.136 53.8339" stroke="black" stroke-width="2" stroke-linecap="round"/>
<path d="M235.599 54.637C237.206 54.0307 242.027 53.1818 248.455 54.637" stroke="black" stroke-width="2" stroke-linecap="round"/>
<path d="M209.802 115.8C170.03 112.988 160.227 107.324 131.462 176.263" stroke="black" stroke-width="2" stroke-linecap="round"/>
<path d="M248.336 114.35C282.484 120.375 298.956 99.4847 321.454 168.384" stroke="black" stroke-width="2" stroke-linecap="round"/>
<path d="M155.366 219.852C151.309 239.234 138.741 241.278 131.815 239.711C131.143 239.559 130.909 238.748 131.306 238.185C145.242 218.428 123.054 203.862 110.949 207.089C110.404 207.234 109.81 206.95 109.704 206.397C108.248 198.845 120.788 197.295 122.021 186.507C122.664 180.882 123.427 178.005 126.641 177.869C140.903 177.267 160.789 193.939 155.366 219.852Z" stroke="black" stroke-width="2" stroke-linecap="round"/>
<path d="M324.266 170.995C327.59 186.439 338.143 194.082 334.632 204.294C334.465 204.78 333.916 205.022 333.42 204.886C309.354 198.277 303.439 224.876 312.185 235.02C312.796 235.728 312.389 236.945 311.458 236.853C294.947 235.214 282.695 207.77 286.502 197.109C297.55 166.174 323.099 165.572 324.266 170.995Z" stroke="black" stroke-width="2" stroke-linecap="round"/>
<path d="M291.524 222.218C291.39 248.8 291.886 276.493 295.743 298.348" stroke="black" stroke-width="2" stroke-linecap="round"/>
<path d="M156.169 217.441C156.437 243.689 155.647 273.806 151.147 300" stroke="black" stroke-width="2" stroke-linecap="round"/>
<path d="M244.687 124.152C246.475 119.134 244.84 115.758 243.254 115.115C233.695 123.606 219.197 120.454 213.827 115.307C211.913 117.006 213.027 122.03 213.827 123.573C224.178 134.689 238.913 128.462 244.687 124.152Z" fill="black"/>
</svg>
